<?xml version="1.0" encoding="utf-8"?>
<svg xmlns="http://www.w3.org/2000/svg" xmlns:xlink="http://www.w3.org/1999/xlink" width="48" height="48">
  <path fill="none" stroke="#E8E8ED" stroke-width="16" stroke-linecap="round" stroke-linejoin="round" transform="matrix(0.1875 0 0 0.1875 24 23.2494)" d="M-24 92.0031L-24 29.9995L24 29.9995L24 92.0031L88 92.0031C88 92.0031 88 -3.99685 88 -3.99685C88.0017 -6.11922 87.1599 -8.15528 85.66 -9.65685C85.66 -9.65685 5.66 -89.6569 5.66 -89.6569C4.15945 -91.1591 2.12327 -92.0031 1.42109e-14 -92.0031C-2.12327 -92.0031 -4.15945 -91.1591 -5.66 -89.6569C-5.66 -89.6569 -85.66 -9.65685 -85.66 -9.65685C-87.1599 -8.15528 -88.0017 -6.11922 -88 -3.99685C-88 -3.99685 -88 92.0031 -88 92.0031L-24 92.0031Z"></path>
</svg>